<?xml version="1.0" encoding="UTF-8"?>
<svg version="1.1" xmlns="http://www.w3.org/2000/svg" width="1080" height="1080">
<path d="M0 0 C356.4 0 712.8 0 1080 0 C1080 356.4 1080 712.8 1080 1080 C723.6 1080 367.2 1080 0 1080 C0 723.6 0 367.2 0 0 Z " fill="#FEFEFE" transform="translate(0,0)"/>
<path d="M0 0 C2.30834961 0.10717773 2.30834961 0.10717773 5 1 C6.62719727 3.65649414 6.62719727 3.65649414 8.06640625 7.28515625 C8.33772369 7.95187347 8.60904114 8.6185907 8.88858032 9.30551147 C9.79792063 11.55103182 10.67953786 13.8064911 11.5625 16.0625 C12.2059201 17.66306443 12.85156521 19.26273595 13.49926758 20.86157227 C14.91137511 24.3504923 16.3146779 27.84279511 17.71386719 31.33691406 C21.35401009 40.39202147 25.14334048 49.38558022 28.91159058 58.38790894 C36.65856307 76.90419046 44.325595 95.45352126 52 114 C90.115 114.495 90.115 114.495 129 115 C129 116.65 129 118.3 129 120 C128.34773438 120.02578125 127.69546875 120.0515625 127.0234375 120.078125 C119.75610346 120.5497514 115.85610634 122.14389366 110.625 127.375 C105.61839517 138.54358 110.11108926 149.69074963 114.08383179 160.40815735 C115.07365314 163.20836494 115.95296292 166.02746529 116.81738281 168.86889648 C118.85410279 175.53063647 120.92431312 182.1814231 123.00457764 188.8296814 C123.64477652 190.87570413 124.28458916 192.92184733 124.92431641 194.96801758 C126.28255162 199.3121137 127.64123919 203.65606825 129 208 C130.57782967 213.04429063 132.15546 218.08864344 133.73260498 223.13314819 C134.35486266 225.12310166 134.97747009 227.11294545 135.60009766 229.1027832 C137.80413387 236.15193857 139.99263588 243.20557838 142.1598053 250.26615906 C143.24129803 253.78513996 144.33747391 257.29926788 145.4375 260.8125 C145.64358887 261.47137207 145.84967773 262.13024414 146.06201172 262.80908203 C147.14797883 266.28072407 148.23571832 269.75180779 149.32421875 273.22265625 C149.75793478 274.60673252 150.19153022 275.99084659 150.625 277.375 C150.83487549 278.04515137 151.04475098 278.71530273 151.26098633 279.40576172 C152.62082445 283.75832508 153.94752328 288.11912187 155.2265625 292.49609375 C155.9036151 294.68796606 156.62149633 296.85815396 157.35449219 299.03173828 C159.01259537 303.99723574 160.56585387 308.99161117 162.1015625 313.99609375 C162.67965042 315.87175622 163.2577765 317.74740693 163.8359375 319.62304688 C164.73629819 322.54823079 165.63609022 325.47358782 166.53515625 328.39916992 C167.40996826 331.24443918 168.28688953 334.08905163 169.1640625 336.93359375 C169.43384918 337.81373642 169.70363586 338.69387909 169.9815979 339.60069275 C170.23210907 340.41236404 170.48262024 341.22403534 170.74072266 342.06030273 C170.96039703 342.77484116 171.18007141 343.48937958 171.40640259 344.22557068 C171.97876886 346.07450164 171.97876886 346.07450164 173 348 C173.23945847 347.25434784 173.47891693 346.50869568 173.72563171 345.740448 C176.00281511 338.6508968 178.2822058 331.56206067 180.5639677 324.47398186 C181.736455 320.83150352 182.90814073 317.18877173 184.07788086 313.54541016 C185.21059269 310.01748765 186.34555842 306.49029706 187.48197365 302.96356583 C187.91124669 301.63008637 188.33975967 300.29636194 188.76743126 298.96236801 C191.33958328 290.9413645 194.05905517 282.99287991 196.917099 275.06945801 C198.17853701 271.49394096 199.25810606 267.92115445 200.27734375 264.26953125 C203.70328975 252.30336325 207.67384454 240.50926267 211.5625 228.6875 C212.36628833 226.23686848 213.16991642 223.78618439 213.97338867 221.33544922 C217.51347467 210.54694713 221.06774329 199.76338489 224.671875 188.99609375 C224.94575546 188.17749374 225.21963593 187.35889374 225.5018158 186.51548767 C226.7316035 182.84271765 227.96544936 179.17140266 229.20727539 175.50268555 C231.72475372 168.0345379 234.04517697 160.53635715 236.23713684 152.9671936 C237.80752212 147.57293364 239.57054496 142.27700525 241.5 137 C244.69013361 128.09461191 247.44077105 119.10472236 250 110 C251.65 109.67 253.3 109.34 255 109 C257.87070716 116.02492865 260.52439222 123.10661425 263.0625 130.2578125 C263.44607666 131.33352509 263.82965332 132.40923767 264.22485352 133.51754761 C265.48499818 137.0527399 266.742479 140.58887368 268 144.125 C268.89302571 146.6315832 269.78621893 149.13810595 270.6796875 151.64453125 C272.3009783 156.19320797 273.92166995 160.74209722 275.54156494 165.29127121 C279.60867282 176.71269529 283.68716805 188.13004654 287.76638794 199.54714966 C289.84341444 205.36069665 291.91974903 211.17449073 293.99609375 216.98828125 C294.40846786 218.14289352 294.82084198 219.2975058 295.24571228 220.48710632 C297.75622484 227.51655988 300.26604756 234.54625935 302.77536011 241.57614136 C314.48968145 274.39389162 326.23186436 307.2015094 338 340 C338.20332947 339.38838013 338.40665894 338.77676025 338.6161499 338.14660645 C338.88429504 337.3409021 339.15244019 336.53519775 339.42871094 335.70507812 C339.69391541 334.90783325 339.95911987 334.11058838 340.23236084 333.28918457 C340.85638251 331.42828318 341.49616612 329.57267281 342.140625 327.71875 C344.79093274 320.02912472 347.08513312 312.27744596 349.25 304.4375 C351.89448646 294.86331688 354.64285795 285.32545348 357.5 275.8125 C357.78704803 274.85627747 357.78704803 274.85627747 358.07989502 273.8807373 C360.51324911 265.78905874 363.02700583 257.72764707 365.625 249.6875 C367.98424754 242.37603627 370.14928144 235.03218452 372.1875 227.625 C375.30400045 216.30699105 378.62446914 205.05558341 382 193.8125 C382.26197174 192.93985504 382.52394348 192.06721008 382.79385376 191.16812134 C386.00006835 180.50284379 389.26223186 169.85998025 392.70141602 159.26708984 C394.32406713 154.2391147 395.8038328 149.18920868 397.20507812 144.09521484 C402.01194136 126.65271044 408.26873064 109.87277702 417 94 C417.34111816 93.37963867 417.68223633 92.75927734 418.03369141 92.12011719 C425.9761486 77.89250173 435.72470374 64.76298208 447 53 C447.82757812 52.10925781 448.65515625 51.21851563 449.5078125 50.30078125 C468.52005901 30.42938074 492.35907379 19.56839031 519 14 C519.92039062 13.80019531 520.84078125 13.60039062 521.7890625 13.39453125 C526.64914015 12.79736842 531.48405786 12.89647919 536.375 12.9375 C537.90833984 12.94426758 537.90833984 12.94426758 539.47265625 12.95117188 C541.98183194 12.962897 544.4908849 12.97930824 547 13 C547 14.32 547 15.64 547 17 C545.88625 17.15855469 544.7725 17.31710937 543.625 17.48046875 C511.19416671 22.32629067 484.27320291 36.91819589 464.49609375 63.54296875 C445.2546528 89.96018736 433.63536515 119.37283132 423 150 C422.68611328 150.90361267 422.37222656 151.80722534 422.04882812 152.73822021 C414.42523325 174.69507314 406.86326642 196.67321862 399.30347252 218.65209961 C397.73301886 223.21791474 396.1624063 227.78367521 394.59176636 232.34942627 C393.69656793 234.95172136 392.80150423 237.55406274 391.90652466 240.15643311 C386.05781038 257.16171483 380.16979758 274.15266532 374.22769165 291.12554932 C368.76357105 306.73855567 363.40893203 322.38785147 358.09619141 338.05297852 C357.51084053 339.77753989 356.92539345 341.50206862 356.33984375 343.2265625 C356.05830948 344.05650726 355.77677521 344.88645203 355.48670959 345.74154663 C353.87679728 350.47293369 352.22843928 355.18847428 350.54501343 359.8941803 C348.03117444 366.92567507 345.67882563 373.95263293 343.8125 381.1875 C343.4419751 382.60784546 343.4419751 382.60784546 343.06396484 384.05688477 C340.51639649 394.2463174 339.13577274 404.57028204 338 415 C336.68 415 335.36 415 334 415 C327.6144145 398.233403 321.53318979 381.36727131 315.57901001 364.44381714 C313.05504345 357.27022704 310.52124931 350.10010294 307.98828125 342.9296875 C307.73327787 342.2076029 307.4782745 341.4855183 307.21554375 340.74155235 C302.28881897 326.79214647 297.31365051 312.86040286 292.3125 298.9375 C291.93189423 297.8777597 291.55128845 296.81801941 291.15914917 295.72616577 C288.85067208 289.29869956 288.85067208 289.29869956 286.54194641 282.87132263 C282.3369313 271.16136295 278.15448137 259.4433591 273.97241211 247.72518921 C267.89966818 230.70999651 261.82658286 213.694906 255.73086548 196.68792725 C255.12445166 194.99557869 254.51846577 193.30307672 253.91293335 191.6104126 C253.09550935 189.32577665 252.27651371 187.04171075 251.45703125 184.7578125 C251.21953156 184.09305908 250.98203186 183.42830566 250.73733521 182.7434082 C249.90920684 180.43973437 249.09589254 178.19178508 248 176 C246.91556675 179.39548303 245.83266915 182.7914541 244.75 186.1875 C244.44964844 187.12787109 244.14929688 188.06824219 243.83984375 189.03710938 C242.25074619 194.02417087 240.68436506 199.01689977 239.15527344 204.02270508 C237.02881933 210.94133708 234.82056843 217.83186889 232.59375 224.71875 C232.18296325 225.99178853 231.77228037 227.26486059 231.36169434 228.53796387 C229.85875673 233.19735878 228.35394797 237.85614888 226.84918213 242.51495361 C225.57038811 246.47439602 224.29233866 250.43407736 223.01521301 254.39405823 C222.4266682 256.21797348 221.83707123 258.04154911 221.24743652 259.8651123 C219.46218271 265.39949705 217.70256348 270.93957818 216 276.5 C213.92983463 283.26097711 211.76911659 289.99099401 209.59375 296.71875 C209.18296325 297.99178853 208.77228037 299.26486059 208.36169434 300.53796387 C206.85875673 305.19735878 205.35394797 309.85614888 203.84918213 314.51495361 C202.57038811 318.47439602 201.29233866 322.43407736 200.01521301 326.39405823 C199.4266682 328.21797348 198.83707123 330.04154911 198.24743652 331.8651123 C196.09063934 338.55130188 193.98714318 345.25129235 191.93014526 351.96884155 C189.74743386 359.08186398 187.48648431 366.16980006 185.21118164 373.25366211 C184.6165275 375.11225919 184.02628686 376.97227468 183.44067383 378.83374023 C175.94831863 402.62939295 166.44472769 424.95016694 150 444 C149.33871094 444.80566406 148.67742187 445.61132812 147.99609375 446.44140625 C132.88797964 464.22056816 110.59075169 478.51065466 87.1015625 480.87890625 C76.76813995 481.47432651 64.99909609 481.91640303 55 479 C55 477.68 55 476.36 55 475 C55.62229492 475.00636475 56.24458984 475.01272949 56.88574219 475.01928711 C83.33697514 475.09936882 102.53946195 468.02410621 121.61328125 449.484375 C126.97554266 444.08728387 131.57632537 438.1767667 136 432 C136.43296387 431.39929688 136.86592773 430.79859375 137.31201172 430.1796875 C143.47788167 421.53229063 148.60882018 412.58044808 153.08300781 402.95214844 C153.99189485 401.01725473 154.94205484 399.10708674 155.8984375 397.1953125 C156.47609171 395.98539123 157.05171145 394.77449591 157.625 393.5625 C158.13289063 392.51191406 158.64078125 391.46132813 159.1640625 390.37890625 C161.26344559 381.89308207 156.02462329 371.9920865 153.16796875 364.05078125 C152.68909553 362.70729333 152.21069597 361.3636365 151.73274231 360.01982117 C150.47845359 356.49725681 149.21780596 352.9770019 147.95574951 349.45721436 C146.68734151 345.91621263 145.42497823 342.37305824 144.16210938 338.83007812 C142.2964441 333.5982046 140.42767835 328.36745738 138.55541992 323.13793945 C138.13690765 321.96663483 137.71839539 320.7953302 137.28720093 319.58853149 C136.384787 317.07273093 135.47701766 314.55937911 134.56265259 312.04794312 C134.32978452 311.40496623 134.09691645 310.76198935 133.85699177 310.09952831 C133.21002798 308.3136195 132.56003837 306.52880766 131.90986633 304.74406433 C131 302 131 302 131 300 C108.23 300 85.46 300 62 300 C62 298.68 62 297.36 62 296 C63.19496094 295.87044922 63.19496094 295.87044922 64.4140625 295.73828125 C71.13835271 294.84661746 75.48296475 294.21196375 80 289 C83.29793952 283.17364018 84.00879563 277.82528678 82.31591797 271.40600586 C81.27977106 268.28331609 80.15615674 265.20531262 79 262.125 C78.57009766 260.9505835 78.14019531 259.77616699 77.69726562 258.56616211 C76.1556193 254.36831459 74.57957571 250.18369734 73 246 C72.67660645 245.1425116 72.35321289 244.28502319 72.02001953 243.40155029 C68.15339112 233.15512226 64.2616873 222.91832505 60.34375 212.69140625 C60.03578491 211.8873082 59.72781982 211.08321014 59.41052246 210.25474548 C59.12229614 209.5036702 58.83406982 208.75259491 58.53710938 207.97875977 C58.28747437 207.32819107 58.03783936 206.67762238 57.78063965 206.00733948 C56.86981855 203.66525096 55.93329034 201.33322585 55 199 C17.38 198.67 -20.24 198.34 -59 198 C-59.99 201.3 -60.98 204.6 -62 208 C-63.04124566 210.81274943 -64.10242581 213.59516594 -65.22265625 216.375 C-65.52468964 217.13438873 -65.82672302 217.89377747 -66.13790894 218.67617798 C-66.77953652 220.28863457 -67.42287824 221.90041001 -68.06784058 223.51153564 C-69.07732855 226.03709843 -70.07895229 228.56565113 -71.07836914 231.09521484 C-73.84104184 238.08339413 -76.60733831 245.0691108 -79.46138 252.02056885 C-80.63332774 254.88336308 -81.78253916 257.75531861 -82.9375 260.625 C-83.35588135 261.61628906 -83.7742627 262.60757812 -84.20532227 263.62890625 C-87.06424277 270.80481518 -88.72439851 278.57590478 -86.3137207 286.15869141 C-84.1258497 290.45021888 -81.2792225 292.93963361 -77 295 C-73.66996756 295.58823926 -70.37692115 295.86652486 -67 296 C-67 297.32 -67 298.64 -67 300 C-95.05 300 -123.1 300 -152 300 C-152 298.68 -152 297.36 -152 296 C-150.69289063 295.88785156 -150.69289063 295.88785156 -149.359375 295.7734375 C-137.88194323 294.50644828 -126.78028179 290.98042505 -119.15625 281.7734375 C-118.6096875 280.98195313 -118.063125 280.19046875 -117.5 279.375 C-116.9534375 278.59898437 -116.406875 277.82296875 -115.84375 277.0234375 C-109.61805731 266.81435669 -105.38088875 255.57553016 -100.8125 244.5625 C-100.01462281 242.64681381 -99.21635676 240.73128954 -98.41772461 238.81591797 C-96.76195699 234.84390586 -95.10784906 230.87120917 -93.45507812 226.89794922 C-89.67019555 217.80167933 -85.86667998 208.7132121 -82.0625 199.625 C-81.50980942 198.30400803 -81.50980942 198.30400803 -80.94595337 196.95632935 C-74.76353683 182.18062107 -68.53985591 167.42257705 -62.30352783 152.66955566 C-56.48994165 138.91507788 -50.70071547 125.15065943 -44.9375 111.375 C-44.38677322 110.05897797 -44.38677322 110.05897797 -43.82492065 108.71636963 C-40.02754173 99.64161196 -36.23461233 90.56501672 -32.45004272 81.48490906 C-30.87551353 77.70794533 -29.29957575 73.93157076 -27.7230835 70.15542603 C-26.95300242 68.31053209 -26.183345 66.46546125 -25.41412354 64.62020874 C-21.0166224 54.07608991 -16.51795049 43.59826759 -11.8125 33.1875 C-6.95014558 22.40405271 -3.27560886 11.35783625 0 0 Z " fill="#2B2727" transform="translate(418,310)"/>
<path d="M0 0 C3.01071497 1.50535748 3.17945567 3.65330889 4.328125 6.77758789 C4.66610076 7.68765956 4.66610076 7.68765956 5.01090431 8.61611652 C5.764034 10.64920076 6.50692537 12.68587763 7.25 14.72265625 C7.78070895 16.16101786 8.31208418 17.59913379 8.84408569 19.03701782 C9.97913115 22.10875671 11.10979522 25.18205848 12.23699951 28.25668335 C13.99830828 33.06078703 15.76886395 37.86144454 17.54150391 42.66137695 C18.13481607 44.2682269 18.72810829 45.8750842 19.32138062 47.48194885 C19.61500866 48.27723055 19.9086367 49.07251225 20.21116257 49.89189339 C21.10364847 52.31034004 21.99516103 54.72914337 22.88638306 57.14805603 C27.99632675 71.01455963 33.17079593 84.85607526 38.375 98.6875 C40.66410635 104.77311331 42.95120457 110.85943951 45.22937012 116.94915771 C45.93175605 118.81838549 46.64359628 120.68405376 47.35644531 122.54931641 C47.72608398 123.5294873 48.09572266 124.5096582 48.4765625 125.51953125 C48.77900879 126.31077393 49.08145508 127.1020166 49.39306641 127.91723633 C50 130 50 130 50 134 C16.34 134 -17.32 134 -52 134 C-51.11302952 129.5651476 -49.82957521 125.68108111 -48.17578125 121.51171875 C-47.73515602 120.38620102 -47.73515602 120.38620102 -47.28562927 119.23794556 C-46.29855309 116.71955343 -45.30553797 114.20354667 -44.3125 111.6875 C-43.60608601 109.88905711 -42.90004104 108.09046922 -42.19433594 106.29174805 C-40.6463191 102.34822211 -39.09571223 98.40572668 -37.54345703 94.46386719 C-34.84370689 87.60620957 -32.15413823 80.74457566 -29.46484375 73.8828125 C-13.37061315 32.83185986 -13.37061315 32.83185986 -5.6875 13.625 C-5.20829102 12.42657471 -4.72908203 11.22814941 -4.23535156 9.9934082 C-1.13700844 2.27401687 -1.13700844 2.27401687 0 0 Z " fill="#FDFDFD" transform="translate(417,361)"/>
<path d="M0 0 C8.45014042 3.59130968 13.71496757 8.67676624 17.78125 16.94921875 C18.12554047 17.64630951 18.46983093 18.34340027 18.82455444 19.06161499 C23.17609993 28.13361569 26.35776691 37.62339294 29.625 47.125 C30.3417225 49.18230799 31.05969521 51.2391808 31.77880859 53.2956543 C33.33944865 57.76039288 34.89548193 62.22670245 36.44921875 66.69384766 C40.6406163 78.72239641 44.91152651 90.72293648 49.17449951 102.72625732 C50.36339911 106.07444784 51.55005831 109.42342662 52.73579216 112.77273941 C53.85678311 115.9386674 54.9792487 119.10407197 56.1015625 122.26953125 C56.52506989 123.46586182 56.94857727 124.66219238 57.38491821 125.89477539 C59.29352884 131.2698571 61.2239101 136.63340479 63.23730469 141.97021484 C63.57361908 142.86383224 63.90993347 143.75744965 64.25643921 144.67814636 C64.87304616 146.3067619 65.49630768 147.93288052 66.12759399 149.55586243 C66.80812726 151.35018707 67.4127769 153.17300917 68 155 C67.67 155.66 67.34 156.32 67 157 C62.40435673 149.81786907 58.84129563 142.48546915 55.5625 134.625 C55.05009766 133.41295898 54.53769531 132.20091797 54.00976562 130.95214844 C52.6159786 127.65242915 51.23263325 124.34844065 49.85284424 121.04284668 C49.00586002 119.01403671 48.15720515 116.98593323 47.30810547 114.95800781 C43.57897061 106.04822377 39.86963164 97.13025749 36.16455078 88.21044922 C32.5235822 79.44506124 28.87837156 70.68143938 25.23059082 61.91888428 C24.37141231 59.85488494 23.51244279 57.79079859 22.65368652 55.72662354 C18.3408695 45.36179062 14.01659238 35.00255082 9.61328125 24.67578125 C9.27888535 23.89110977 8.94448944 23.10643829 8.59996033 22.29798889 C7.05929144 18.68549759 5.51379359 15.07518155 3.96069336 11.46801758 C3.42685942 10.22089206 2.89308273 8.97374203 2.359375 7.7265625 C1.90014648 6.66002441 1.44091797 5.59348633 0.96777344 4.49462891 C0 2 0 2 0 0 Z " fill="#F5F5F5" transform="translate(474,434)"/>
<path d="M0 0 C2.18975773 3.28463659 2.99806563 6.20696275 4 10 C1.24049934 7.50754779 -0.62030099 5.79699009 -1 2 C-0.67 1.34 -0.34 0.68 0 0 Z " fill="#CDCCCC" transform="translate(538,581)"/>
</svg>
